<?xml version="1.0" standalone="no"?>
<!DOCTYPE svg PUBLIC "-//W3C//DTD SVG 20010904//EN"
 "http://www.w3.org/TR/2001/REC-SVG-20010904/DTD/svg10.dtd">
<svg version="1.0" xmlns="http://www.w3.org/2000/svg"
 width="225.000000pt" height="225.000000pt" viewBox="0 0 225.000000 225.000000"
 preserveAspectRatio="xMidYMid meet">

<g transform="translate(0.000000,225.000000) scale(0.100000,-0.100000)"
fill="#000000" stroke="none">
<path d="M0 1125 l0 -1125 1125 0 1125 0 0 1125 0 1125 -1125 0 -1125 0 0
-1125z m688 765 c7 -36 23 -88 37 -115 39 -81 141 -177 213 -199 l22 -7 0 196
0 196 138 -3 137 -3 3 -192 c1 -106 6 -193 10 -193 4 0 30 13 57 29 99 56 184
174 200 276 15 95 -2 86 153 83 l137 -3 -3 -60 c-3 -69 -33 -177 -69 -250 -81
-160 -239 -293 -414 -347 l-73 -23 280 -5 279 -5 0 -135 0 -135 -272 -3 c-250
-2 -328 -10 -238 -25 53 -9 194 -80 256 -130 142 -114 243 -304 251 -468 l3
-64 -140 0 -140 0 -7 60 c-14 111 -95 232 -193 290 -77 45 -75 49 -75 -165 l0
-190 -140 0 -140 0 0 190 c0 217 1 214 -81 161 -103 -67 -172 -170 -191 -287
l-11 -64 -140 0 -140 0 7 73 c25 258 210 492 458 578 44 15 82 30 85 33 4 3
-118 6 -270 6 l-277 0 0 140 0 140 278 2 277 3 -70 23 c-115 38 -192 87 -285
181 -64 65 -95 105 -123 162 -55 113 -95 288 -70 313 4 3 66 5 137 4 l131 -3
13 -65z"/>
</g>
</svg>
